#N canvas 72 66 597 671 10;
#X obj 364 179 loadbang;
#X obj 33 622 dac~;
#X msg 420 42 \; pd dsp 1;
#X msg 417 88 \; pd dsp 0;
#X floatatom 82 450 5 0 0 0 - - -;
#X obj 82 303 vsl 15 128 0 1500 0 0 empty empty empty 0 -8 0 8 -262144
-1 -1 3725 1;
#X text 11 293 Frequency;
#X obj 83 511 line;
#X obj 82 484 pack 0 50;
#X floatatom 140 429 5 0 0 0 - - -;
#X text 133 405 gliss time;
#X msg 45 512 0;
#X obj -4 460 bng 15 250 50 0 empty empty empty 0 -6 0 8 -262144 -1
-1;
#X text -35 438 noteOn \, amp;
#X text -41 424 CLICK TO PLAY;
#X msg -3 510 100;
#X msg 83 266 440;
#X text 40 76 Karplus-Strong Plucked String;
#X obj 32 586 Sitar~;
#X text 39 43 Sitar~;
#X text 40 62 Sitar Plucked String based on;
#X connect 0 0 16 0;
#X connect 0 0 11 0;
#X connect 4 0 8 0;
#X connect 5 0 4 0;
#X connect 7 0 18 2;
#X connect 8 0 7 0;
#X connect 9 0 8 1;
#X connect 11 0 18 1;
#X connect 12 0 15 0;
#X connect 15 0 18 1;
#X connect 16 0 5 0;
#X connect 18 0 1 0;
#X connect 18 0 1 1;
