#N canvas 72 66 982 721 10;
#X obj 254 226 hsl 128 15 0 127 0 0 empty empty empty -2 -6 0 8 -262144
-1 -1 1200 1;
#X text 277 404 comment;
#X obj 256 281 hsl 128 15 0 127 0 0 empty empty empty -2 -6 0 8 -262144
-1 -1 8000 1;
#X obj 254 340 hsl 128 15 0 127 0 0 empty empty empty -2 -6 0 8 -262144
-1 -1 900 1;
#X obj 255 405 hsl 128 15 0 127 0 0 empty empty empty -2 -6 0 8 -262144
-1 -1 3500 1;
#X obj 255 465 hsl 128 15 0 127 0 0 empty empty empty -2 -6 0 8 -262144
-1 -1 10000 1;
#X obj 276 146 loadbang;
#X obj 33 622 dac~;
#X msg 547 28 \; pd dsp 1;
#X msg 544 74 \; pd dsp 0;
#X msg 251 249 stkCtrl 1 \$1;
#X msg 253 309 stkCtrl 2 \$1;
#X msg 251 368 stkCtrl 4 \$1;
#X msg 252 433 stkCtrl 11 \$1;
#X msg 252 493 stkCtrl 128 \$1;
#X floatatom 138 472 5 0 0 0 - - -;
#X obj 138 325 vsl 15 128 0 1500 0 0 empty empty empty 0 -8 0 8 -262144
-1 -1 1109 1;
#X text 67 315 Frequency;
#X msg 221 225 12;
#X msg 214 376 35;
#X obj 51 432 vsl 15 128 0 127 0 0 empty empty empty 0 -8 0 8 -262144
-1 -1 0 1;
#X text 15 411 Amplitude;
#X msg 52 286 0;
#X text 394 226 Vibrato Gain;
#X text 400 283 Voiced/Unvoiced Mix;
#X text 398 338 Vowel / Phoneme selection;
#X text 403 406 Vibrato Frequency;
#X text 400 464 Spectral Tilt (loudness);
#X text 185 29 VoicForm~;
#X text 186 47 4-formant voice synthesis;
#X obj 32 586 VoicForm~;
#X msg 206 327 9;
#X msg 212 276 80;
#X msg 213 440 100;
#X msg 138 287 131;
#X connect 0 0 10 0;
#X connect 2 0 11 0;
#X connect 3 0 12 0;
#X connect 4 0 13 0;
#X connect 5 0 14 0;
#X connect 6 0 18 0;
#X connect 6 0 32 0;
#X connect 6 0 34 0;
#X connect 6 0 33 0;
#X connect 6 0 19 0;
#X connect 6 0 31 0;
#X connect 6 0 22 0;
#X connect 10 0 30 3;
#X connect 11 0 30 3;
#X connect 12 0 30 3;
#X connect 13 0 30 3;
#X connect 14 0 30 3;
#X connect 15 0 30 2;
#X connect 16 0 15 0;
#X connect 18 0 0 0;
#X connect 19 0 4 0;
#X connect 20 0 30 1;
#X connect 22 0 20 0;
#X connect 30 0 7 0;
#X connect 30 0 7 1;
#X connect 31 0 3 0;
#X connect 32 0 2 0;
#X connect 33 0 5 0;
#X connect 34 0 16 0;
