#N canvas 2 53 1009 676 10;
#X msg 289 173 stkCtrl 1 \$1;
#X msg 289 206 stkCtrl 2 \$1;
#X msg 289 240 stkCtrl 4 \$1;
#X msg 289 274 stkCtrl 11 \$1;
#X msg 289 308 stkCtrl 128 \$1;
#X obj 147 248 line;
#X obj 147 221 pack 0 50;
#X floatatom 198 198 5 0 0 0 - - -;
#X text 197 178 gliss time;
#X obj 400 100 cnv 200 350 230 empty empty empty 20 12 0 14 -262130
-66577 0;
#X obj 400 101 cnv 15 350 20 empty empty HevyMetal 125 12 0 14 -260097
-1 0;
#X obj 415 157 hsl 128 15 0 127 0 0 empty Hevy_LFO_Depth LFO-Depth
-2 -8 0 10 -260097 -1 -1 7000 1;
#X obj 415 191 hsl 128 15 0 127 0 0 empty Hevy_ModIndx Total_Modulator_Index
-2 -8 0 10 -260097 -1 -1 900 1;
#X obj 415 225 hsl 128 15 0 127 0 0 empty Hevy_Crossfade Modulator_Crossfade
-2 -8 0 10 -260097 -1 -1 100 1;
#X obj 415 259 hsl 128 15 0 127 0 0 empty Hevy_LFO_Speed LFO_Speed
-2 -8 0 10 -260097 -1 -1 3500 1;
#X obj 415 293 hsl 128 15 0 127 0 0 empty Hevy_ADSR ADSR_2_&_4_Target
-2 -8 0 10 -260097 -1 -1 12000 1;
#X obj 599 145 cnv 15 150 185 empty empty Presets 20 12 0 14 -258019
-1 0;
#X obj 609 183 bng 15 250 50 0 empty empty Spooky 17 7 0 10 -49933
-260097 -1;
#X obj 609 209 bng 15 250 50 0 empty empty Fat_Theremin 17 7 0 10 -49933
-260097 -1;
#X text 144 27 Frequency (0Hz-1500Hz);
#X floatatom 147 152 5 0 0 0 - - -;
#X floatatom 164 107 5 0 0 2 min Hevy_autoscale_min -;
#X floatatom 199 108 5 0 0 2 max Hevy_autoscale_max -;
#X obj 147 131 autoscale;
#X text 181 150 Frequency [Hz];
#X obj 147 45 r frequency;
#X obj 113 345 throw~ audio_out;
#X obj 113 309 HevyMetl~;
#X obj 162 7 tgl 15 0 empty start_HeavyMetl Start_HeavyMetl 17 7 0
10 -262144 -1 -1 1 1;
#X obj 147 71 *;
#X floatatom 89 238 5 0 0 2 amplitude Hevy_amplitude -;
#X obj 252 62 switch~;
#X text 301 60 <-- DSP on/off to redcue CPU load;
#X text 477 342 Fat Theremin;
#X text 631 339 Spooky;
#X msg 289 114 reset;
#X obj 580 22 t b b;
#X msg 448 361 \; Hevy_autoscale_min 180 \; Hevy_autoscale_max 50 \;
Hevy_amplitude 100 \; Hevy_LFO_Depth 1 \; Hevy_ModIndx 110 \; Hevy_Crossfade
100 \; Hevy_LFO_Speed 35 \; Hevy_ADSR 120 \;;
#X msg 609 358 \; Hevy_autoscale_min 829 \; Hevy_autoscale_max 370
\; Hevy_amplitude 80 \; Hevy_LFO_Depth 70 \; Hevy_ModIndx 9 \; Hevy_Crossfade
1 \; Hevy_LFO_Speed 35 \; Hevy_ADSR 120 \;;
#X connect 0 0 27 3;
#X connect 1 0 27 3;
#X connect 2 0 27 3;
#X connect 3 0 27 3;
#X connect 4 0 27 3;
#X connect 5 0 27 2;
#X connect 6 0 5 0;
#X connect 7 0 6 1;
#X connect 11 0 0 0;
#X connect 12 0 1 0;
#X connect 13 0 2 0;
#X connect 14 0 3 0;
#X connect 15 0 4 0;
#X connect 17 0 38 0;
#X connect 18 0 37 0;
#X connect 20 0 6 0;
#X connect 21 0 23 1;
#X connect 22 0 23 2;
#X connect 23 0 20 0;
#X connect 25 0 29 0;
#X connect 27 0 26 0;
#X connect 28 0 29 1;
#X connect 28 0 31 0;
#X connect 28 0 36 0;
#X connect 29 0 23 0;
#X connect 30 0 27 1;
#X connect 35 0 23 0;
#X connect 36 0 35 0;
#X connect 36 1 38 0;
#X coords 0 -1 1 1 350 230 1 400 100;
