#N canvas 76 92 809 615 10;
#X floatatom 294 157 5 0 0 1 Lenght_of_one_Period_[ms] - -;
#X msg 169 278 1;
#X msg 205 277 0;
#X obj 106 294 noise~;
#X obj 144 335 *~;
#X obj 294 277 vd~ buffer 100;
#X obj 295 430 *~ 0.99;
#X obj 143 520 delwrite~ buffer 1000;
#X obj 294 314 *~ 0.5;
#X obj 382 353 *~ 0.5;
#X obj 294 369 +~;
#X obj 294 130 expr 1000 / $f1;
#X obj 27 167 metro 1500;
#X obj 84 141 expr 60000/$f1;
#X text 429 352 Averaging;
#X text 393 128 Hz --> ms;
#X text 176 140 BPM --> ms;
#X obj 84 102 inlet;
#X obj 27 102 inlet;
#X obj 294 103 inlet;
#X text 24 77 Start;
#X text 84 77 BPM-Value;
#X text 292 77 Frequency-Value;
#X obj 205 250 del;
#X obj 294 576 outlet~;
#X text 86 13 Guitar model using Karplus-Strong Algorithm;
#X text 85 13 Guitar model using Karplus-Strong Algorithm;
#X obj 334 404 inlet;
#X text 333 383 Amplitude_damping_/_Decay;
#X obj 293 233 vline~;
#X obj 293 210 pack 0 0;
#X floatatom 359 194 5 0 0 1 Portamento_time_(ms) portamento -;
#X obj 295 502 lop~ 4000;
#X obj 346 476 inlet;
#X text 345 455 Spectral_damping_/_Cut-Off;
#X obj 382 323 z~;
#X connect 0 0 23 1;
#X connect 0 0 30 0;
#X connect 1 0 4 1;
#X connect 2 0 4 1;
#X connect 3 0 4 0;
#X connect 4 0 7 0;
#X connect 5 0 8 0;
#X connect 5 0 35 0;
#X connect 6 0 32 0;
#X connect 8 0 10 0;
#X connect 9 0 10 1;
#X connect 10 0 6 0;
#X connect 11 0 0 0;
#X connect 12 0 1 0;
#X connect 12 0 23 0;
#X connect 13 0 12 1;
#X connect 17 0 13 0;
#X connect 18 0 12 0;
#X connect 19 0 11 0;
#X connect 23 0 2 0;
#X connect 27 0 6 1;
#X connect 29 0 5 0;
#X connect 30 0 29 0;
#X connect 31 0 30 1;
#X connect 32 0 7 0;
#X connect 32 0 24 0;
#X connect 33 0 32 1;
#X connect 35 0 9 0;
