#N canvas 125 163 765 499 10;
#X msg 299 173 stkCtrl 1 \$1;
#X msg 299 206 stkCtrl 2 \$1;
#X msg 299 240 stkCtrl 4 \$1;
#X msg 296 273 stkCtrl 11 \$1;
#X msg 295 303 stkCtrl 128 \$1;
#X obj 400 100 cnv 200 350 230 empty empty empty 20 12 0 14 -262130
-66577 0;
#X obj 400 101 cnv 15 350 20 empty empty Hammond_Organ 125 12 0 14
-260097 -1 0;
#X obj 417 157 hsl 128 15 0 127 0 0 empty Bee_LFO_Depth LFO-Depth -2
-8 0 10 -260097 -1 -1 1500 1;
#X obj 417 191 hsl 128 15 0 127 0 0 empty Bee_Feedback Feedback_Gain
-2 -8 0 10 -260097 -1 -1 4800 1;
#X obj 417 225 hsl 128 15 0 127 0 0 empty Bee_Operatr_3Gain Operator_3_Gain
-2 -8 0 10 -260097 -1 -1 1000 1;
#X obj 417 259 hsl 128 15 0 127 0 0 empty Bee_LFO_Speed LFO_Speed -2
-8 0 10 -260097 -1 -1 9000 1;
#X obj 417 293 hsl 128 15 0 127 0 0 empty Bee_ADSR ADSR_2_&_4_Target
-2 -8 0 10 -260097 -1 -1 1000 1;
#X obj 599 145 cnv 15 150 185 empty empty Presets 20 12 0 14 -258019
-1 0;
#X obj 609 183 bng 15 250 50 0 empty empty Standard 17 7 0 10 -49933
-260097 -1;
#X obj 609 209 bng 15 250 50 0 empty empty Ghost 17 7 0 10 -49933 -260097
-1;
#X floatatom 147 184 5 0 0 0 - - -;
#X floatatom 164 139 5 0 0 2 min Bee_autoscale_min -;
#X floatatom 201 140 5 0 0 2 max Bee_autoscale_max -;
#X obj 147 163 autoscale;
#X text 182 182 Frequency [Hz];
#X obj 147 70 r frequency;
#X obj 113 345 throw~ audio_out;
#X obj 161 31 tgl 15 0 empty start_Hammond Start_Hammond 17 7 0 10
-262144 -1 -1 0 1;
#X obj 147 96 *;
#X obj 113 309 BeeThree~;
#X obj 147 223 *;
#X obj 239 70 switch~;
#X text 288 70 <-- DSP on/off to redcue CPU load;
#X floatatom 130 269 5 0 0 2 amplitude Bee_amplitude -;
#X text 631 334 Standard Config;
#X text 473 337 Ghost;
#X msg 254 147 reset;
#X obj 581 46 t b b;
#X msg 448 359 \; Bee_autoscale_min 800 \; Bee_autoscale_max 400 \;
Bee_LFO_Depth 98 \; Bee_Feedback 100 \; Bee_Operatr_3Gain 10 \; Bee_LFO_Speed
84 \; Bee_ADSR 10 \;;
#X msg 609 358 \; Bee_amplitude 100 \; Bee_autoscale_min 220 \; Bee_autoscale_max
100 \; Bee_LFO_Depth 15 \; Bee_Feedback 48 \; Bee_Operatr_3Gain 10
\; Bee_LFO_Speed 90 \; Bee_ADSR 10 \;;
#X connect 0 0 24 3;
#X connect 1 0 24 3;
#X connect 2 0 24 3;
#X connect 3 0 24 3;
#X connect 4 0 24 3;
#X connect 7 0 0 0;
#X connect 8 0 1 0;
#X connect 9 0 2 0;
#X connect 10 0 3 0;
#X connect 11 0 4 0;
#X connect 13 0 34 0;
#X connect 14 0 33 0;
#X connect 15 0 25 0;
#X connect 16 0 18 1;
#X connect 17 0 18 2;
#X connect 18 0 15 0;
#X connect 20 0 23 0;
#X connect 22 0 23 1;
#X connect 22 0 25 1;
#X connect 22 0 26 0;
#X connect 22 0 32 0;
#X connect 23 0 18 0;
#X connect 24 0 21 0;
#X connect 25 0 24 2;
#X connect 28 0 24 1;
#X connect 31 0 18 0;
#X connect 32 0 31 0;
#X connect 32 1 34 0;
#X coords 0 -1 1 1 350 230 1 400 100;
