#N canvas 397 187 450 300 10;
#X obj 176 86 t b f;
#X obj 155 116 -;
#X obj 155 144 select 0;
#X msg 155 171 0;
#X msg 200 170 1;
#X obj 126 57 inlet;
#X obj 176 57 inlet;
#X obj 155 212 outlet;
#X text 130 9 Bitwise XOR;
#X connect 0 0 1 0;
#X connect 0 1 1 1;
#X connect 1 0 2 0;
#X connect 2 0 3 0;
#X connect 2 1 4 0;
#X connect 3 0 7 0;
#X connect 4 0 7 0;
#X connect 5 0 1 0;
#X connect 6 0 0 0;
