#N canvas 2 193 863 441 10;
#X obj 118 -197 tgl 15 0 empty empty empty 17 7 0 10 -260097 -1 -1
0 1;
#X obj 148 -197 tgl 15 0 empty empty empty 17 7 0 10 -262144 -1 -1
0 3;
#X obj 133 -197 tgl 15 0 empty empty empty 17 7 0 10 -262144 -1 -1
0 2;
#X obj 163 -197 tgl 15 0 empty empty empty 17 7 0 10 -262144 -1 -1
0 4;
#X obj 178 -197 tgl 15 0 empty empty empty 17 7 0 10 -260097 -1 -1
0 1;
#X obj 208 -197 tgl 15 0 empty empty empty 17 7 0 10 -262144 -1 -1
0 1;
#X obj 193 -197 tgl 15 0 empty empty empty 17 7 0 10 -262144 -1 -1
0 6;
#X obj 223 -197 tgl 15 0 empty empty empty 17 7 0 10 -262144 -1 -1
0 8;
#X obj 238 -197 tgl 15 0 empty empty empty 17 7 0 10 -260097 -1 -1
0 1;
#X obj 268 -197 tgl 15 0 empty empty empty 17 7 0 10 -262144 -1 -1
0 11;
#X obj 253 -197 tgl 15 0 empty empty empty 17 7 0 10 -262144 -1 -1
0 10;
#X obj 283 -197 tgl 15 0 empty empty empty 17 7 0 10 -262144 -1 -1
0 12;
#X obj 298 -197 tgl 15 0 empty empty empty 17 7 0 10 -260097 -1 -1
0 13;
#X obj 328 -197 tgl 15 0 empty empty empty 17 7 0 10 -262144 -1 -1
0 1;
#X obj 313 -197 tgl 15 0 empty empty empty 17 7 0 10 -262144 -1 -1
0 14;
#X obj 343 -197 tgl 15 0 empty empty empty 17 7 0 10 -262144 -1 -1
0 1;
#X msg 25 -213 0;
#X obj 119 -302 r preset-\$1;
#X obj 119 -279 route 1 2 3 4 5 6 7 8 9 10 11 12 13 14 15 16;
#N canvas 2 53 450 278 (subpatch) 0;
#X array steps-\$1 16 float 3;
#A 0 0 0 0 0 0 0 0 0 0 0 0 0 0 0 0 0;
#X coords 0 278 1 277 200 140 0;
#X restore 510 -239 graph;
#X obj 171 -91 unpack;
#X floatatom 127 -66 5 0 0 0 - - -;
#X floatatom 226 -65 5 0 0 0 - - -;
#X msg 67 -131 \$1 1;
#X msg 139 -130 \$1 3;
#X msg 178 -132 \$1 4;
#X msg 213 -131 \$1 5;
#X msg 250 -131 \$1 6;
#X msg 285 -130 \$1 7;
#X obj 127 -3 tabwrite steps-\$1;
#X obj 436 -108 t a;
#X msg 323 -131 \$1 8;
#X msg 358 -130 \$1 9;
#X msg 395 -130 \$1 10;
#X msg 430 -129 \$1 11;
#X msg 469 -131 \$1 12;
#X msg 504 -130 \$1 13;
#X msg 541 -129 \$1 14;
#X msg 576 -128 \$1 15;
#X msg 104 -131 \$1 2;
#X msg 32 -132 \$1 0;
#X obj 127 -37 > 0;
#X obj 25 -233 r patt_clr;
#X text 468 -261 Graph \$1 in which the pattern ist saved;
#X connect 0 0 40 0;
#X connect 1 0 39 0;
#X connect 2 0 23 0;
#X connect 3 0 24 0;
#X connect 4 0 25 0;
#X connect 5 0 27 0;
#X connect 6 0 26 0;
#X connect 7 0 28 0;
#X connect 8 0 31 0;
#X connect 9 0 33 0;
#X connect 10 0 32 0;
#X connect 11 0 34 0;
#X connect 12 0 35 0;
#X connect 13 0 37 0;
#X connect 14 0 36 0;
#X connect 15 0 38 0;
#X connect 16 0 0 0;
#X connect 16 0 2 0;
#X connect 16 0 1 0;
#X connect 16 0 3 0;
#X connect 16 0 4 0;
#X connect 16 0 6 0;
#X connect 16 0 5 0;
#X connect 16 0 7 0;
#X connect 16 0 8 0;
#X connect 16 0 10 0;
#X connect 16 0 9 0;
#X connect 16 0 11 0;
#X connect 16 0 12 0;
#X connect 16 0 14 0;
#X connect 16 0 13 0;
#X connect 16 0 15 0;
#X connect 17 0 18 0;
#X connect 18 0 0 0;
#X connect 18 1 2 0;
#X connect 18 2 1 0;
#X connect 18 3 3 0;
#X connect 18 4 4 0;
#X connect 18 5 6 0;
#X connect 18 6 5 0;
#X connect 18 7 7 0;
#X connect 18 8 8 0;
#X connect 18 9 10 0;
#X connect 18 10 9 0;
#X connect 18 11 11 0;
#X connect 18 12 12 0;
#X connect 18 13 14 0;
#X connect 18 14 13 0;
#X connect 18 15 15 0;
#X connect 20 0 21 0;
#X connect 20 1 22 0;
#X connect 21 0 41 0;
#X connect 22 0 29 1;
#X connect 23 0 20 0;
#X connect 24 0 20 0;
#X connect 25 0 20 0;
#X connect 26 0 20 0;
#X connect 27 0 20 0;
#X connect 28 0 20 0;
#X connect 30 0 20 0;
#X connect 31 0 30 0;
#X connect 32 0 30 0;
#X connect 33 0 30 0;
#X connect 34 0 30 0;
#X connect 35 0 30 0;
#X connect 36 0 30 0;
#X connect 37 0 30 0;
#X connect 38 0 30 0;
#X connect 39 0 20 0;
#X connect 40 0 20 0;
#X connect 41 0 29 0;
#X connect 42 0 16 0;
#X coords 0 -1 1 1 260 20 2 100 -200;
