#N canvas 182 383 961 587 10;
#X obj 369 183 hsl 128 15 0 127 0 0 empty empty empty -2 -6 0 8 -262144
-1 -1 1500 1;
#X text 392 361 comment;
#X obj 371 238 hsl 128 15 0 127 0 0 empty empty empty -2 -6 0 8 -262144
-1 -1 3700 1;
#X obj 369 297 hsl 128 15 0 127 0 0 empty empty empty -2 -6 0 8 -262144
-1 -1 1000 1;
#X obj 370 362 hsl 128 15 0 127 0 0 empty empty empty -2 -6 0 8 -262144
-1 -1 9000 1;
#X obj 370 422 hsl 128 15 0 127 0 0 empty empty empty -2 -6 0 8 -262144
-1 -1 1000 1;
#X obj 195 124 loadbang;
#X obj 54 419 bng 15 250 50 0 empty empty empty 0 -6 0 8 -262144 -1
-1;
#X text 23 397 noteOn \, amp;
#X msg 54 468 127;
#X obj 32 573 dac~;
#X msg 659 51 \; pd dsp 1;
#X msg 660 87 \; pd dsp 0;
#X msg 366 206 stkCtrl 1 \$1;
#X msg 368 266 stkCtrl 2 \$1;
#X msg 366 325 stkCtrl 4 \$1;
#X msg 367 390 stkCtrl 11 \$1;
#X msg 367 450 stkCtrl 128 \$1;
#X floatatom 120 403 5 0 0 0 - - -;
#X obj 120 256 vsl 15 128 0 1500 0 0 empty empty empty 0 -8 0 8 -262144
-1 -1 1863 1;
#X text 137 242 Frequency;
#X obj 33 539 BeeThree~;
#X msg 20 467 0;
#X text 508 183 LFO Depth;
#X text 510 240 Feedback Gain;
#X text 218 48 4 - operator FM topology;
#X text 214 66 "Algorithm 8 of TX81Z";
#X text 217 32 Hammond-oid Organ FM Synth;
#X text 512 298 Operator 3 Gain;
#X text 516 357 LFO Speed;
#X text 515 421 ADSR 2 & 4 Target;
#X msg 244 156 15;
#X msg 243 183 48;
#X msg 243 214 10;
#X msg 244 248 90;
#X msg 246 280 10;
#X msg 120 222 220;
#X connect 0 0 13 0;
#X connect 2 0 14 0;
#X connect 3 0 15 0;
#X connect 4 0 16 0;
#X connect 5 0 17 0;
#X connect 6 0 31 0;
#X connect 6 0 32 0;
#X connect 6 0 35 0;
#X connect 6 0 33 0;
#X connect 6 0 34 0;
#X connect 6 0 36 0;
#X connect 7 0 9 0;
#X connect 9 0 21 1;
#X connect 13 0 21 3;
#X connect 14 0 21 3;
#X connect 15 0 21 3;
#X connect 16 0 21 3;
#X connect 17 0 21 3;
#X connect 18 0 21 2;
#X connect 19 0 18 0;
#X connect 21 0 10 0;
#X connect 21 0 10 1;
#X connect 22 0 21 1;
#X connect 31 0 0 0;
#X connect 32 0 2 0;
#X connect 33 0 3 0;
#X connect 34 0 4 0;
#X connect 35 0 5 0;
#X connect 36 0 19 0;
