#N canvas 72 66 982 721 10;
#X obj 254 226 hsl 128 15 0 127 0 0 empty empty empty -2 -6 0 8 -262144
-1 -1 0 1;
#X text 277 404 comment;
#X obj 256 281 hsl 128 15 0 127 0 0 empty empty empty -2 -6 0 8 -262144
-1 -1 8300 1;
#X obj 254 340 hsl 128 15 0 127 0 0 empty empty empty -2 -6 0 8 -262144
-1 -1 9400 1;
#X obj 255 405 hsl 128 15 0 127 0 0 empty empty empty -2 -6 0 8 -262144
-1 -1 7000 1;
#X obj 255 465 hsl 128 15 0 128 0 0 empty empty empty -2 -6 0 8 -262144
-1 -1 2000 1;
#X obj 276 146 loadbang;
#X obj 33 622 dac~;
#X msg 547 28 \; pd dsp 1;
#X msg 544 74 \; pd dsp 0;
#X msg 251 249 stkCtrl 1 \$1;
#X msg 253 309 stkCtrl 2 \$1;
#X msg 251 368 stkCtrl 4 \$1;
#X msg 252 433 stkCtrl 11 \$1;
#X msg 252 493 stkCtrl 128 \$1;
#X floatatom 117 469 5 0 0 0 - - -;
#X obj 117 322 vsl 15 128 0 1500 0 0 empty empty empty 0 -8 0 8 -262144
-1 -1 2540 1;
#X text 135 300 Frequency;
#X text 394 226 Vibrato Gain;
#X text 403 406 Vibrato Frequency;
#X msg 214 376 70;
#X text 18 338 Amplitude;
#X obj 32 586 Brass~;
#X text 400 283 Lip Tension;
#X text 404 341 Slide Length;
#X text 400 464 Breath Pressure (Volume);
#X msg 213 441 0;
#X text 183 29 Brass~;
#X text 183 42 Brass Model;
#X msg 221 224 0;
#X msg 195 320 80;
#X msg 117 284 300;
#X msg 44 354 100;
#X msg 212 276 82;
#X connect 0 0 10 0;
#X connect 2 0 11 0;
#X connect 3 0 12 0;
#X connect 4 0 13 0;
#X connect 5 0 14 0;
#X connect 6 0 29 0;
#X connect 6 0 33 0;
#X connect 6 0 31 0;
#X connect 6 0 26 0;
#X connect 6 0 20 0;
#X connect 6 0 30 0;
#X connect 6 0 32 0;
#X connect 10 0 22 3;
#X connect 11 0 22 3;
#X connect 12 0 22 3;
#X connect 13 0 22 3;
#X connect 14 0 22 3;
#X connect 15 0 22 2;
#X connect 16 0 15 0;
#X connect 20 0 4 0;
#X connect 22 0 7 0;
#X connect 22 0 7 1;
#X connect 26 0 5 0;
#X connect 29 0 0 0;
#X connect 30 0 3 0;
#X connect 31 0 16 0;
#X connect 32 0 22 1;
#X connect 33 0 2 0;
