#N canvas 72 66 982 721 10;
#X obj 342 259 hsl 128 15 0 127 0 0 empty empty empty -2 -6 0 8 -262144
-1 -1 200 1;
#X text 365 383 comment;
#X obj 342 322 hsl 128 15 0 127 0 0 empty empty empty -2 -6 0 8 -262144
-1 -1 10000 1;
#X obj 343 384 hsl 128 15 0 127 0 0 empty empty empty -2 -6 0 8 -262144
-1 -1 11000 1;
#X obj 364 179 loadbang;
#X obj 33 622 dac~;
#X msg 547 28 \; pd dsp 1;
#X msg 544 74 \; pd dsp 0;
#X msg 339 282 stkCtrl 1 \$1;
#X msg 339 353 stkCtrl 4 \$1;
#X msg 340 411 stkCtrl 11 \$1;
#X floatatom 82 450 5 0 0 0 - - -;
#X obj 82 303 vsl 15 128 0 1500 0 0 empty empty empty 0 -8 0 8 -262144
-1 -1 3725 1;
#X text 11 293 Frequency;
#X msg 295 309 100;
#X obj 83 511 line;
#X obj 82 484 pack 0 50;
#X floatatom 140 429 5 0 0 0 - - -;
#X text 133 405 gliss time;
#X msg 38 522 0;
#X obj -4 460 bng 15 250 50 0 empty empty empty 0 -6 0 8 -262144 -1
-1;
#X text -35 438 noteOn \, amp;
#X text -41 424 CLICK TO PLAY;
#X msg 83 266 440;
#X text 186 29 StifKarp~;
#X text 185 47 Enhanced Karplus-Strong Plucked String;
#X text 483 259 String Stretch;
#X text 484 318 Pickup Position;
#X text 485 387 String Sustain;
#X obj 32 586 StifKarp~;
#X msg 308 258 2;
#X msg 302 355 110;
#X msg -2 509 90;
#X connect 0 0 8 0;
#X connect 2 0 9 0;
#X connect 3 0 10 0;
#X connect 4 0 30 0;
#X connect 4 0 23 0;
#X connect 4 0 31 0;
#X connect 4 0 14 0;
#X connect 4 0 19 0;
#X connect 8 0 29 3;
#X connect 9 0 29 3;
#X connect 10 0 29 3;
#X connect 11 0 16 0;
#X connect 12 0 11 0;
#X connect 14 0 2 0;
#X connect 15 0 29 2;
#X connect 16 0 15 0;
#X connect 17 0 16 1;
#X connect 19 0 29 1;
#X connect 20 0 32 0;
#X connect 23 0 12 0;
#X connect 29 0 5 0;
#X connect 29 0 5 1;
#X connect 30 0 0 0;
#X connect 31 0 3 0;
#X connect 32 0 29 1;
