#N canvas 72 66 982 721 10;
#X obj 495 271 hsl 128 15 0 127 0 0 empty empty empty -2 -6 0 8 -262144
-1 -1 400 1;
#X text 518 449 comment;
#X obj 497 326 hsl 128 15 0 127 0 0 empty empty empty -2 -6 0 8 -262144
-1 -1 11000 1;
#X obj 495 385 hsl 128 15 0 127 0 0 empty empty empty -2 -6 0 8 -262144
-1 -1 9000 1;
#X obj 496 450 hsl 128 15 0 127 0 0 empty empty empty -2 -6 0 8 -262144
-1 -1 3500 1;
#X obj 517 191 loadbang;
#X obj 186 634 dac~;
#X msg 547 28 \; pd dsp 1;
#X msg 544 74 \; pd dsp 0;
#X msg 492 294 stkCtrl 1 \$1;
#X msg 494 354 stkCtrl 2 \$1;
#X msg 492 413 stkCtrl 4 \$1;
#X msg 493 478 stkCtrl 11 \$1;
#X msg 64 557 stkCtrl 128 \$1;
#X floatatom 235 462 5 0 0 0 - - -;
#X obj 235 315 vsl 15 128 0 1500 0 0 empty empty empty 0 -8 0 8 -262144
-1 -1 4233 1;
#X text 164 305 Frequency;
#X msg 453 321 110;
#X msg 455 421 35;
#X obj 236 523 line;
#X obj 235 496 pack 0 50;
#X floatatom 293 441 5 0 0 0 - - -;
#X text 286 417 gliss time;
#X msg 461 270 4;
#X text 185 29 Whistle~;
#X obj 185 598 Whistle~;
#X text 185 47 Hybrid Physical/Spectral Whistle Model;
#X text 185 61 Police/referee whistle.;
#X text 636 271 Fipple Modulation Gain;
#X text 638 326 Blowing Frequency Modulation;
#X text 637 381 Noise Gain;
#X text 638 453 Fipple Modulation Frequency;
#X obj 64 397 vsl 15 128 0 127 0 0 empty empty empty 0 -8 0 8 -262144
-1 -1 0 1;
#X text 90 400 Breath Pressure;
#X text 91 415 (Volume);
#X msg 448 372 90;
#X msg 236 278 500;
#X connect 0 0 9 0;
#X connect 2 0 10 0;
#X connect 3 0 11 0;
#X connect 4 0 12 0;
#X connect 5 0 23 0;
#X connect 5 0 17 0;
#X connect 5 0 36 0;
#X connect 5 0 18 0;
#X connect 5 0 35 0;
#X connect 9 0 25 3;
#X connect 10 0 25 3;
#X connect 11 0 25 3;
#X connect 12 0 25 3;
#X connect 13 0 25 3;
#X connect 14 0 20 0;
#X connect 15 0 14 0;
#X connect 17 0 2 0;
#X connect 18 0 4 0;
#X connect 19 0 25 2;
#X connect 20 0 19 0;
#X connect 21 0 20 1;
#X connect 23 0 0 0;
#X connect 25 0 6 0;
#X connect 25 0 6 1;
#X connect 32 0 13 0;
#X connect 35 0 3 0;
#X connect 36 0 15 0;
